<svg xmlns="http://www.w3.org/2000/svg" aria-hidden="true" class="gitea-wechat__svg gitea-wechat__gitea-wechat svg gitea-wechat" viewBox="0 0 24 24" width="16" height="16"><path fill="#07c160" d="M8.691 2.188C5.639 2.188 3.25 4.154 3.25 6.5c0 1.438.906 2.719 2.313 3.469-.125.781-.5 1.656-.5 1.656s1.188-.313 2.063-.656c.5.125 1.031.219 1.625.219 2.626 0 4.75-1.907 4.75-4.25s-2.124-4.25-4.81-4.25zM7.187 4.812c.469 0 .844.375.844.844s-.375.844-.844.844-.844-.375-.844-.844.375-.844.844-.844m3.438 0c.469 0 .844.375.844.844s-.375.844-.844.844-.844-.375-.844-.844.375-.844.844-.844"/><path fill="#07c160" d="M15.309 8.5c-2.626 0-4.75 1.907-4.75 4.25S12.683 17 15.309 17c.594 0 1.125-.094 1.625-.219.875.343 2.063.656 2.063.656s-.375-.875-.5-1.656c1.407-.75 2.313-2.031 2.313-3.469 0-2.343-2.124-4.25-4.501-4.25zm-1.5 2.625c.469 0 .844.375.844.844s-.375.844-.844.844-.844-.375-.844-.844.375-.844.844-.844m3 0c.469 0 .844.375.844.844s-.375.844-.844.844-.844-.375-.844-.844.375-.844.844-.844"/></svg>