<?xml version="1.0" encoding="UTF-8" standalone="no"?>
<!DOCTYPE svg PUBLIC "-//W3C//DTD SVG 1.1//EN" "http://www.w3.org/Graphics/SVG/1.1/DTD/svg11.dtd">
<!-- Created with Vectornator (http://vectornator.io/) -->
<svg height="100%" stroke-miterlimit="10" style="fill-rule:nonzero;clip-rule:evenodd;stroke-linecap:round;stroke-linejoin:round;" version="1.1" viewBox="0 0 256 256" width="100%" xml:space="preserve" xmlns="http://www.w3.org/2000/svg" xmlns:vectornator="http://vectornator.io" xmlns:xlink="http://www.w3.org/1999/xlink">
<defs>
<filter color-interpolation-filters="sRGB" filterUnits="userSpaceOnUse" height="269.32" id="Filter" width="269.32" x="-4.31262" y="-3.95142">
<feDropShadow dx="2.46166" dy="3.22075" flood-color="#000000" flood-opacity="0.333" in="SourceGraphic" result="Shadow" stdDeviation="6.26409"/>
</filter>
<filter color-interpolation-filters="sRGB" filterUnits="userSpaceOnUse" height="146.873" id="Filter_2" width="194.995" x="32.8501" y="57.2724">
<feDropShadow dx="2.46166" dy="3.22075" flood-color="#000000" flood-opacity="0.333" in="SourceGraphic" result="Shadow" stdDeviation="6.26409"/>
</filter>
</defs>
<clipPath id="ArtboardFrame">
<rect height="256" width="256" x="0" y="0"/>
</clipPath>
<g clip-path="url(#ArtboardFrame)" id="图层-1" vectornator:layerName="图层 1">
<path d="M8.88595 127.488C8.88595 61.7662 62.1641 8.48806 127.886 8.48806C193.608 8.48806 246.886 61.7662 246.886 127.488C246.886 193.21 193.608 246.488 127.886 246.488C62.1641 246.488 8.88595 193.21 8.88595 127.488Z" fill="#ededed" fill-rule="nonzero" filter="url(#Filter)" stroke="none" vectornator:layerName="椭圆 1" vectornator:shadowAngle="0.918198" vectornator:shadowColor="#000000" vectornator:shadowOffset="4.05377" vectornator:shadowOpacity="0.333" vectornator:shadowRadius="12.5282"/>
<path d="M73.085 69.7664C69.6284 69.3265 66.085 71.5839 65.3662 75.3914L46.1787 177.016C44.9636 183.454 52.5363 187.828 57.5225 183.579L121.694 129.231L110.163 120.476L63.4912 160.266L76.9287 89.0164L198.554 181.798C203.879 185.86 211.296 180.761 209.429 174.329L180.585 74.9226C179.194 70.1305 173.343 68.3436 169.491 71.5164L129.241 104.673L140.074 113.041L170.179 88.9226L190.21 157.954L76.3975 71.1414C75.3706 70.3581 74.2372 69.913 73.085 69.7664Z" fill="#181818" fill-rule="nonzero" filter="url(#Filter_2)" stroke="none" vectornator:layerName="曲线 1" vectornator:shadowAngle="0.918198" vectornator:shadowColor="#000000" vectornator:shadowOffset="4.05377" vectornator:shadowOpacity="0.333" vectornator:shadowRadius="12.5282"/>
</g>
</svg>
