<svg xmlns="http://www.w3.org/2000/svg" viewBox="0 0 24 24" class="svg gitea-wechat" width="16" height="16" aria-hidden="true">
  <path fill="#07c160" d="M8.691 2.188C5.639 2.188 3.25 4.154 3.25 6.5c0 1.438.906 2.719 2.313 3.469-.125.781-.5 1.656-.5 1.656s1.188-.313 2.063-.656c.5.125 1.031.219 1.625.219 2.626 0 4.75-1.907 4.75-4.25 0-2.344-2.124-4.25-4.81-4.25zm-1.504 2.624c.469 0 .844.375.844.844s-.375.844-.844.844-.844-.375-.844-.844.375-.844.844-.844zm3.438 0c.469 0 .844.375.844.844s-.375.844-.844.844-.844-.375-.844-.844.375-.844.844-.844z"/>
  <path fill="#07c160" d="M15.309 8.5c-2.626 0-4.75 1.907-4.75 4.25 0 2.344 2.124 4.25 4.75 4.25.594 0 1.125-.094 1.625-.219.875.343 2.063.656 2.063.656s-.375-.875-.5-1.656c1.407-.75 2.313-2.031 2.313-3.469 0-2.343-2.124-4.25-4.501-4.25zm-1.5 2.625c.469 0 .844.375.844.844s-.375.844-.844.844-.844-.375-.844-.844.375-.844.844-.844zm3 0c.469 0 .844.375.844.844s-.375.844-.844.844-.844-.375-.844-.844.375-.844.844-.844z"/>
</svg> 